<svg width="20" height="20" viewBox="0 0 20 20" fill="none" xmlns="http://www.w3.org/2000/svg">
<path d="M15.8333 2.5H4.16667C3.24619 2.5 2.5 3.24619 2.5 4.16667V15.8333C2.5 16.7538 3.24619 17.5 4.16667 17.5H15.8333C16.7538 17.5 17.5 16.7538 17.5 15.8333V4.16667C17.5 3.24619 16.7538 2.5 15.8333 2.5Z" stroke="#D4AF37" stroke-width="1.66667" stroke-linecap="round" stroke-linejoin="round"/>
<path d="M7.49998 9.16659C8.42045 9.16659 9.16665 8.42039 9.16665 7.49992C9.16665 6.57944 8.42045 5.83325 7.49998 5.83325C6.57951 5.83325 5.83331 6.57944 5.83331 7.49992C5.83331 8.42039 6.57951 9.16659 7.49998 9.16659Z" stroke="#D4AF37" stroke-width="1.66667" stroke-linecap="round" stroke-linejoin="round"/>
<path d="M17.5 12.5001L14.9283 9.92841C14.6158 9.61595 14.1919 9.44043 13.75 9.44043C13.3081 9.44043 12.8842 9.61595 12.5717 9.92841L5 17.5001" stroke="#D4AF37" stroke-width="1.66667" stroke-linecap="round" stroke-linejoin="round"/>
</svg>
